<svg xmlns="http://www.w3.org/2000/svg" viewBox="0 0 64 64" width="100%" height="100%">
  <style>
    .gold-glow {
      fill: url(#gold-grad);
    }
    @media (prefers-color-scheme: light) {
      .gold-glow {
        fill: url(#gold-grad-dark);
      }
    }
  </style>
  <defs>
    <linearGradient id="gold-grad" x1="0%" y1="0%" x2="100%" y2="100%">
      <stop offset="0%" stop-color="#e2d2b5" />
      <stop offset="50%" stop-color="#d4be96" />
      <stop offset="100%" stop-color="#a38a5e" />
    </linearGradient>
    <linearGradient id="gold-grad-dark" x1="0%" y1="0%" x2="100%" y2="100%">
      <stop offset="0%" stop-color="#a38a5e" />
      <stop offset="50%" stop-color="#8c734b" />
      <stop offset="100%" stop-color="#6e5733" />
    </linearGradient>
  </defs>
  <!-- Стилизованный лотос/руки -->
  <path class="gold-glow" d="M32,8 C34,16 42,20 45,26 C47,30 46,35 42,38 C39,40 35,39 32,36 C29,39 25,40 22,38 C18,35 17,30 19,26 C22,20 30,16 32,8 Z" />
  <path class="gold-glow" d="M32,36 C26,38 20,36 16,30 C12,24 13,17 18,13 C19,12 21,14 20,16 C18,20 18,25 22,28 C25,30 29,29 32,27" />
  <path class="gold-glow" d="M32,36 C38,38 44,36 48,30 C52,24 51,17 46,13 C45,12 43,14 44,16 C46,20 46,25 42,28 C39,30 35,29 32,27" />
  <circle class="gold-glow" cx="32" cy="27" r="3" />
</svg>
